# xmcd
#
# Track frame offsets:
#	150
#	13595
#	29442
#	44785
#	62330
#	77435
#	92947
#	110677
#	125135
#	140410
#	152447
#	166335
#	185080
#	203072
#	219622
#
# Disc length: 3140
#
# Revision: 1
# Processed by: cddbd v1.5.1PL0 Copyright (c) Steve Scherf et al.
# Submitted via: VisiTrax 2.9.5.180 - For more info visit www.synapsa.com
# Normalized: r0:DSETVAR1
#
DISCID=d30c420f
DTITLE=Various Artist - CDX 120 October 1995
DYEAR=1995
DGENRE=
TTITLE0=James Bonany - Dog on a toolbox
TTITLE1=Don Williams - Games people play
TTITLE2=Kimber Clayton - Good girls love bad boys
TTITLE3=Holly Dunn - It's not about blame
TTITLE4=Blackhawk - Like there ain't no yeaterday
TTITLE5=Billy Montana - No yesterday
TTITLE6=Trisha earwood - On a bus to St. Cloud
TTITLE7=Jeff Copley - She calls everybody baby
TTITLE8=Wade Hayes - What I meant to say
TTITLE9=Rhonda Vincent - What more do you want from me
TTITLE10=Terri Clark - When boy meets girl
TTITLE11=Kimber Clayton - Good girls love bad boys
TTITLE12=Tracy Lawrence - I threw the rest away
TTITLE13=Tracy Lawrence - Sticks and stones
TTITLE14=Tracy Lawrence - Alibis
EXTD=
EXTT0=
EXTT1=
EXTT2=
EXTT3=
EXTT4=
EXTT5=
EXTT6=
EXTT7=
EXTT8=
EXTT9=
EXTT10=
EXTT11=
EXTT12=
EXTT13=
EXTT14=
PLAYORDER=
